<?xml version="1.0" encoding="UTF-8"?>
<!DOCTYPE svg PUBLIC "-//W3C//DTD SVG 1.1//EN" "http://www.w3.org/Graphics/SVG/1.1/DTD/svg11.dtd">
<svg xmlns="http://www.w3.org/2000/svg" version="1.1" width="382px" height="129px" style="shape-rendering:geometricPrecision; text-rendering:geometricPrecision; image-rendering:optimizeQuality; fill-rule:evenodd; clip-rule:evenodd" xmlns:xlink="http://www.w3.org/1999/xlink">
<g><path style="opacity:1" fill="#fdfefe" d="M -0.5,-0.5 C 126.833,-0.5 254.167,-0.5 381.5,-0.5C 381.5,42.5 381.5,85.5 381.5,128.5C 254.167,128.5 126.833,128.5 -0.5,128.5C -0.5,85.5 -0.5,42.5 -0.5,-0.5 Z"/></g>
<g><path style="opacity:1" fill="#88a4f2" d="M 63.5,10.5 C 63.5,10.8333 63.5,11.1667 63.5,11.5C 64.1667,11.5 64.8333,11.5 65.5,11.5C 65.1744,15.8839 65.5078,20.2172 66.5,24.5C 67.1067,24.3764 67.44,24.0431 67.5,23.5C 71.1667,20.5 74.5,17.1667 77.5,13.5C 77.8333,13.5 78.1667,13.5 78.5,13.5C 79.5,13.5 80.5,13.5 81.5,13.5C 81.1655,18.607 81.4988,22.9403 82.5,26.5C 85.8333,26.5 89.1667,26.5 92.5,26.5C 91.5,27.5 90.5,28.5 89.5,29.5C 83.021,28.5093 76.3543,28.176 69.5,28.5C 69.5,33.1667 69.5,37.8333 69.5,42.5C 66.1667,42.5 62.8333,42.5 59.5,42.5C 59.5,38.1667 59.5,33.8333 59.5,29.5C 53.3217,28.1826 46.9883,28.1826 40.5,29.5C 40.6236,30.1067 40.9569,30.44 41.5,30.5C 43.1436,32.4807 44.8103,34.4807 46.5,36.5C 44.7979,39.0367 42.6312,41.0367 40,42.5C 34.782,39.4591 31.282,35.1258 29.5,29.5C 27.369,28.6862 25.0356,28.1862 22.5,28C 24.5767,27.8078 26.5767,27.3078 28.5,26.5C 28.3764,25.8933 28.0431,25.56 27.5,25.5C 28.209,24.596 29.209,24.2627 30.5,24.5C 30.8168,20.2984 30.4834,16.2984 29.5,12.5C 26.6946,11.6805 23.6946,11.1805 20.5,11C 34.8295,10.5001 49.1628,10.3334 63.5,10.5 Z"/></g>
<g><path style="opacity:1" fill="#7d9bf6" d="M 63.5,11.5 C 63.5,11.1667 63.5,10.8333 63.5,10.5C 81.1667,10.5 98.8333,10.5 116.5,10.5C 116.5,45.8333 116.5,81.1667 116.5,116.5C 101.167,116.5 85.8333,116.5 70.5,116.5C 69.8151,112.572 68.8151,108.739 67.5,105C 69.8633,104.411 70.8633,102.911 70.5,100.5C 85.1667,100.5 99.8333,100.5 114.5,100.5C 114.5,76.5 114.5,52.5 114.5,28.5C 109.833,28.5 105.167,28.5 100.5,28.5C 100.657,29.8734 100.49,31.2068 100,32.5C 96.6207,36.2156 92.9541,39.5489 89,42.5C 86.3516,41.0182 84.185,39.0182 82.5,36.5C 84.1878,34.1455 86.1878,32.1455 88.5,30.5C 89.1667,30.5 89.5,30.1667 89.5,29.5C 90.5,28.5 91.5,27.5 92.5,26.5C 93.2891,26.2172 93.9558,25.7172 94.5,25C 90.6667,21.1667 86.8333,17.3333 83,13.5C 82.501,17.8206 82.3343,22.1539 82.5,26.5C 81.4988,22.9403 81.1655,18.607 81.5,13.5C 80.5,13.5 79.5,13.5 78.5,13.5C 74.6273,11.5698 70.294,10.9031 65.5,11.5C 64.8333,11.5 64.1667,11.5 63.5,11.5 Z"/></g>
<g><path style="opacity:1" fill="#f9fafe" d="M 32.5,12.5 C 36.226,12.1774 39.8927,12.5108 43.5,13.5C 40.1824,17.3181 36.6824,20.9848 33,24.5C 32.5012,20.5138 32.3345,16.5138 32.5,12.5 Z"/></g>
<g><path style="opacity:1" fill="#f9fafe" d="M 63.5,12.5 C 63.6655,16.5138 63.4988,20.5138 63,24.5C 60.2972,21.6286 57.4639,18.9619 54.5,16.5C 53.8592,15.5178 53.1925,14.5178 52.5,13.5C 56.1073,12.5108 59.774,12.1774 63.5,12.5 Z"/></g>
<g><path style="opacity:1" fill="#fafbfe" d="M 77.5,13.5 C 74.5,17.1667 71.1667,20.5 67.5,23.5C 66.5184,20.0381 66.185,16.3714 66.5,12.5C 70.3714,12.185 74.0381,12.5184 77.5,13.5 Z"/></g>
<g><path style="opacity:1" fill="#fbfbfe" d="M 85.5,13.5 C 89.2984,12.5166 93.2984,12.1832 97.5,12.5C 97.6655,16.5138 97.4988,20.5138 97,24.5C 93.2977,20.6295 89.4643,16.9629 85.5,13.5 Z"/></g>
<g><path style="opacity:1" fill="#f6f7fe" d="M 99.5,11.5 C 103.884,11.1744 108.217,11.5078 112.5,12.5C 108.182,16.3179 104.015,20.3179 100,24.5C 99.501,20.1794 99.3343,15.8461 99.5,11.5 Z"/></g>
<g><path style="opacity:1" fill="#aabcf6" d="M 63.5,11.5 C 63.5,11.8333 63.5,12.1667 63.5,12.5C 59.774,12.1774 56.1073,12.5108 52.5,13.5C 53.1925,14.5178 53.8592,15.5178 54.5,16.5C 53.8333,16.5 53.5,16.8333 53.5,17.5C 52.2058,16.7101 51.0391,15.7101 50,14.5C 49.5012,18.4862 49.3345,22.4862 49.5,26.5C 48.1889,22.3171 48.1889,17.9838 49.5,13.5C 53.9218,11.6409 58.5885,10.9743 63.5,11.5 Z"/></g>
<g><path style="opacity:1" fill="#fbfcfe" d="M 45.5,14.5 C 46.4834,18.2984 46.8168,22.2984 46.5,26.5C 42.6249,26.9155 38.9582,26.4155 35.5,25C 39.0374,21.6309 42.3707,18.1309 45.5,14.5 Z"/></g>
<g><path style="opacity:1" fill="#fcfcfe" d="M 53.5,17.5 C 55.8109,20.147 58.1442,22.8136 60.5,25.5C 56.8927,26.4892 53.226,26.8226 49.5,26.5C 49.3345,22.4862 49.5012,18.4862 50,14.5C 51.0391,15.7101 52.2058,16.7101 53.5,17.5 Z"/></g>
<g><path style="opacity:1" fill="#fcfdfe" d="M 78.5,14.5 C 80.4228,18.0293 81.0894,22.0293 80.5,26.5C 76.4862,26.6655 72.4862,26.4988 68.5,26C 72.4385,22.5706 75.7719,18.7372 78.5,14.5 Z"/></g>
<g><path style="opacity:1" fill="#f5f6fe" d="M 92.5,26.5 C 89.1667,26.5 85.8333,26.5 82.5,26.5C 82.3343,22.1539 82.501,17.8206 83,13.5C 86.8333,17.3333 90.6667,21.1667 94.5,25C 93.9558,25.7172 93.2891,26.2172 92.5,26.5 Z"/></g>
<g><path style="opacity:1" fill="#f9f9fe" d="M 113.5,13.5 C 114.485,17.6344 114.818,21.9677 114.5,26.5C 110.154,26.6657 105.821,26.499 101.5,26C 105.704,21.9644 109.704,17.7978 113.5,13.5 Z"/></g>
<g><path style="opacity:1" fill="#fcfcfe" d="M 15.5,14.5 C 19.5,18.1667 23.5,21.8333 27.5,25.5C 23.7016,26.4834 19.7016,26.8168 15.5,26.5C 15.5,22.5 15.5,18.5 15.5,14.5 Z"/></g>
<g><path style="opacity:1" fill="#a8baf5" d="M 116.5,10.5 C 98.8333,10.5 81.1667,10.5 63.5,10.5C 49.1628,10.3334 34.8295,10.5001 20.5,11C 23.6946,11.1805 26.6946,11.6805 29.5,12.5C 30.4834,16.2984 30.8168,20.2984 30.5,24.5C 29.209,24.2627 28.209,24.596 27.5,25.5C 23.5,21.8333 19.5,18.1667 15.5,14.5C 17.0251,11.5426 16.3584,10.8759 13.5,12.5C 13.5,11.5 13.5,10.5 13.5,9.5C 48.0041,9.16832 82.3374,9.50165 116.5,10.5 Z"/></g>
<g><path style="opacity:1" fill="#fdfdfe" d="M 29.5,12.5 C 29.8226,16.226 29.4892,19.8927 28.5,23.5C 25.3769,19.875 22.0436,16.375 18.5,13C 22.1516,12.5014 25.8183,12.3347 29.5,12.5 Z"/></g>
<g><path style="opacity:1" fill="#c9d3fb" d="M 65.5,11.5 C 70.294,10.9031 74.6273,11.5698 78.5,13.5C 78.1667,13.5 77.8333,13.5 77.5,13.5C 74.0381,12.5184 70.3714,12.185 66.5,12.5C 66.185,16.3714 66.5184,20.0381 67.5,23.5C 67.44,24.0431 67.1067,24.3764 66.5,24.5C 65.5078,20.2172 65.1744,15.8839 65.5,11.5 Z"/></g>
<g><path style="opacity:1" fill="#7493fc" d="M 185.5,38.5 C 177.5,38.5 169.5,38.5 161.5,38.5C 161.183,42.7016 161.517,46.7016 162.5,50.5C 168.979,51.4907 175.646,51.824 182.5,51.5C 182.5,55.1667 182.5,58.8333 182.5,62.5C 175.646,62.176 168.979,62.5093 162.5,63.5C 162.5,67.5 162.5,71.5 162.5,75.5C 170.5,75.5 178.5,75.5 186.5,75.5C 186.5,79.8333 186.5,84.1667 186.5,88.5C 173.833,88.5 161.167,88.5 148.5,88.5C 148.5,67.5 148.5,46.5 148.5,25.5C 160.833,25.5 173.167,25.5 185.5,25.5C 185.5,29.8333 185.5,34.1667 185.5,38.5 Z"/></g>
<g><path style="opacity:1" fill="#6c8bfd" d="M 211.5,75.5 C 218.982,76.492 226.648,76.8254 234.5,76.5C 234.5,80.1667 234.5,83.8333 234.5,87.5C 222.5,87.5 210.5,87.5 198.5,87.5C 197.503,67.3402 197.17,47.0069 197.5,26.5C 202.167,26.5 206.833,26.5 211.5,26.5C 211.5,42.8333 211.5,59.1667 211.5,75.5 Z"/></g>
<g><path style="opacity:1" fill="#6182fb" d="M 244.5,26.5 C 248.833,26.5 253.167,26.5 257.5,26.5C 257.5,47.1667 257.5,67.8333 257.5,88.5C 253.167,88.5 248.833,88.5 244.5,88.5C 244.5,67.8333 244.5,47.1667 244.5,26.5 Z"/></g>
<g><path style="opacity:1" fill="#5976f1" d="M 326.5,26.5 C 338.833,26.5 351.167,26.5 363.5,26.5C 363.5,30.5 363.5,34.5 363.5,38.5C 355.833,38.5 348.167,38.5 340.5,38.5C 340.5,42.5 340.5,46.5 340.5,50.5C 347.5,50.5 354.5,50.5 361.5,50.5C 361.5,54.8333 361.5,59.1667 361.5,63.5C 354.5,63.5 347.5,63.5 340.5,63.5C 340.5,67.5 340.5,71.5 340.5,75.5C 348.5,75.5 356.5,75.5 364.5,75.5C 364.5,79.8333 364.5,84.1667 364.5,88.5C 351.833,88.5 339.167,88.5 326.5,88.5C 326.5,67.8333 326.5,47.1667 326.5,26.5 Z"/></g>
<g><path style="opacity:1" fill="#c4cffa" d="M 59.5,29.5 C 53.31,29.1771 47.31,29.5104 41.5,30.5C 40.9569,30.44 40.6236,30.1067 40.5,29.5C 46.9883,28.1826 53.3217,28.1826 59.5,29.5 Z"/></g>
<g><path style="opacity:1" fill="#d3dbfc" d="M 89.5,29.5 C 89.5,30.1667 89.1667,30.5 88.5,30.5C 82.69,29.5104 76.69,29.1771 70.5,29.5C 70.8182,34.0323 70.4849,38.3656 69.5,42.5C 69.5,37.8333 69.5,33.1667 69.5,28.5C 76.3543,28.176 83.021,28.5093 89.5,29.5 Z"/></g>
<g><path style="opacity:1" fill="#fefefe" d="M 70.5,100.5 C 53.8333,100.5 37.1667,100.5 20.5,100.5C 18.8333,100.5 17.1667,100.5 15.5,100.5C 15.5,76.8333 15.5,53.1667 15.5,29.5C 20.1667,29.5 24.8333,29.5 29.5,29.5C 31.282,35.1258 34.782,39.4591 40,42.5C 42.6312,41.0367 44.7979,39.0367 46.5,36.5C 44.8103,34.4807 43.1436,32.4807 41.5,30.5C 47.31,29.5104 53.31,29.1771 59.5,29.5C 59.5,33.8333 59.5,38.1667 59.5,42.5C 62.8333,42.5 66.1667,42.5 69.5,42.5C 70.4849,38.3656 70.8182,34.0323 70.5,29.5C 76.69,29.1771 82.69,29.5104 88.5,30.5C 86.1878,32.1455 84.1878,34.1455 82.5,36.5C 84.185,39.0182 86.3516,41.0182 89,42.5C 92.9541,39.5489 96.6207,36.2156 100,32.5C 100.49,31.2068 100.657,29.8734 100.5,28.5C 105.167,28.5 109.833,28.5 114.5,28.5C 114.5,52.5 114.5,76.5 114.5,100.5C 99.8333,100.5 85.1667,100.5 70.5,100.5 Z"/></g>
<g><path style="opacity:1" fill="#849ffa" d="M 126.5,9.5 C 127.833,9.5 129.167,9.5 130.5,9.5C 130.5,45.5 130.5,81.5 130.5,117.5C 129.167,117.5 127.833,117.5 126.5,117.5C 126.5,81.5 126.5,45.5 126.5,9.5 Z"/></g>
<g><path style="opacity:1" fill="#d6daf9" d="M 185.5,38.5 C 178.018,39.492 170.352,39.8254 162.5,39.5C 162.5,43.1667 162.5,46.8333 162.5,50.5C 161.517,46.7016 161.183,42.7016 161.5,38.5C 169.5,38.5 177.5,38.5 185.5,38.5 Z"/></g>
<g><path style="opacity:1" fill="#9eaefb" d="M 313.5,40.5 C 314.451,41.9187 314.784,43.5853 314.5,45.5C 309.637,45.8195 304.97,45.4861 300.5,44.5C 304.833,44.5 309.167,44.5 313.5,44.5C 313.5,43.1667 313.5,41.8333 313.5,40.5 Z"/></g>
<g><path style="opacity:1" fill="#96a8fe" d="M 162.5,50.5 C 169.5,50.5 176.5,50.5 183.5,50.5C 183.5,54.8333 183.5,59.1667 183.5,63.5C 176.5,63.5 169.5,63.5 162.5,63.5C 168.979,62.5093 175.646,62.176 182.5,62.5C 182.5,58.8333 182.5,55.1667 182.5,51.5C 175.646,51.824 168.979,51.4907 162.5,50.5 Z"/></g>
<g><path style="opacity:1" fill="#5b7af6" d="M 313.5,40.5 C 313.5,41.8333 313.5,43.1667 313.5,44.5C 309.167,44.5 304.833,44.5 300.5,44.5C 299.512,39.4064 296.345,37.0731 291,37.5C 286.548,36.969 283.715,38.8024 282.5,43C 283.439,44.9439 284.773,46.6106 286.5,48C 292.252,49.3758 297.918,51.0425 303.5,53C 315.78,58.8209 318.947,67.9876 313,80.5C 304.033,89.0325 293.533,91.5325 281.5,88C 272.982,84.3113 268.649,77.8113 268.5,68.5C 273.167,68.5 277.833,68.5 282.5,68.5C 283,74.1573 286.166,76.824 292,76.5C 297.627,77.1481 301.127,74.8148 302.5,69.5C 302.471,67.9707 301.804,66.804 300.5,66C 294.38,63.3744 288.047,61.3744 281.5,60C 271.195,55.8904 267.361,48.3904 270,37.5C 273.261,29.9276 279.095,25.7609 287.5,25C 296.964,23.4882 304.797,26.3215 311,33.5C 312.411,35.6504 313.245,37.9837 313.5,40.5 Z"/></g>
<g><path style="opacity:1" fill="#93abf0" d="M 15.5,14.5 C 15.5,18.5 15.5,22.5 15.5,26.5C 19.7016,26.8168 23.7016,26.4834 27.5,25.5C 28.0431,25.56 28.3764,25.8933 28.5,26.5C 26.5767,27.3078 24.5767,27.8078 22.5,28C 25.0356,28.1862 27.369,28.6862 29.5,29.5C 24.8333,29.5 20.1667,29.5 15.5,29.5C 15.5,53.1667 15.5,76.8333 15.5,100.5C 17.1667,100.5 18.8333,100.5 20.5,100.5C 19.2825,101.161 17.9492,101.828 16.5,102.5C 17.8333,106.833 17.8333,111.167 16.5,115.5C 34.4877,116.5 52.4877,116.833 70.5,116.5C 85.8333,116.5 101.167,116.5 116.5,116.5C 82.3374,117.498 48.0041,117.832 13.5,117.5C 13.5,82.5 13.5,47.5 13.5,12.5C 16.3584,10.8759 17.0251,11.5426 15.5,14.5 Z"/></g>
<g><path style="opacity:1" fill="#8da0fd" d="M 211.5,75.5 C 219.5,75.5 227.5,75.5 235.5,75.5C 235.5,79.8333 235.5,84.1667 235.5,88.5C 222.989,88.8286 210.655,88.4952 198.5,87.5C 210.5,87.5 222.5,87.5 234.5,87.5C 234.5,83.8333 234.5,80.1667 234.5,76.5C 226.648,76.8254 218.982,76.492 211.5,75.5 Z"/></g>
<g><path style="opacity:1" fill="#819fef" d="M 20.5,100.5 C 37.1667,100.5 53.8333,100.5 70.5,100.5C 70.8633,102.911 69.8633,104.411 67.5,105C 68.8151,108.739 69.8151,112.572 70.5,116.5C 52.4877,116.833 34.4877,116.5 16.5,115.5C 17.8333,111.167 17.8333,106.833 16.5,102.5C 17.9492,101.828 19.2825,101.161 20.5,100.5 Z"/></g>
</svg>
